<svg xmlns="http://www.w3.org/2000/svg" version="1.1" xmlns:xlink="http://www.w3.org/1999/xlink" xmlns:svgjs="http://svgjs.dev/svgjs" width="1000" height="869" viewBox="0 0 1000 869"><g transform="matrix(1,0,0,1,0.21305962122806932,0.3518398686235287)"><svg viewBox="0 0 284 247" data-background-color="#1f0f53" preserveAspectRatio="xMidYMid meet" height="869" width="1000" xmlns="http://www.w3.org/2000/svg" xmlns:xlink="http://www.w3.org/1999/xlink"><g id="tight-bounds" transform="matrix(1,0,0,1,-0.06050893242877464,-0.09999999999999432)"><svg viewBox="0 0 284.12101786485755 247.2" height="247.2" width="284.12101786485755"><g><svg viewBox="0 0 284.12101786485755 247.2" height="247.2" width="284.12101786485755"><g><svg viewBox="0 0 139.53215739484395 247.2" height="247.2" width="139.53215739484395"><g><svg viewBox="0 0 139.53215739484395 247.2" height="247.2" width="139.53215739484395"><g><svg viewBox="0 0 139.53215739484395 247.2" height="247.2" width="139.53215739484395"><g transform="matrix(1,0,0,1,0,0)"><svg width="139.53215739484395" viewBox="1.0499999523162842 -36.54999923706055 20.80000114440918 36.849998474121094" height="247.2" data-palette-color="#ffdb99"><path d="M11.55 0.3L11.55 0.3Q8.35 0.3 6-0.83 3.65-1.95 2.35-3.95 1.05-5.95 1.05-8.5L1.05-8.5Q1.05-9.5 1.48-9.85 1.9-10.2 2.7-10.2L2.7-10.2Q3.3-10.2 3.83-9.9 4.35-9.6 4.35-8.9L4.35-8.9Q4.4-7.05 5.25-5.65 6.1-4.25 7.7-3.5 9.3-2.75 11.45-2.75L11.45-2.75Q14.8-2.75 16.68-4.63 18.55-6.5 18.55-10.4L18.55-10.4 18.55-33.5 11.5-33.5Q10.95-33.5 10.63-33.98 10.3-34.45 10.3-35.1L10.3-35.1Q10.3-35.6 10.58-36.08 10.85-36.55 11.5-36.55L11.5-36.55 20.35-36.55Q20.9-36.55 21.38-36.23 21.85-35.9 21.85-35.3L21.85-35.3 21.85-10.4Q21.85-6.5 20.48-4.15 19.1-1.8 16.78-0.75 14.45 0.3 11.55 0.3Z" opacity="1" transform="matrix(1,0,0,1,0,0)" fill="#ffdb99" class="undefined-text-0" data-fill-palette-color="primary" id="text-0"></path></svg></g></svg></g></svg></g></svg></g><g transform="matrix(1,0,0,1,197.89014459484395,80.48456336499322)"><svg viewBox="0 0 86.23087327001356 86.23087327001356" height="86.23087327001356" width="86.23087327001356"><g data-palette-color="#ff5db2"><rect width="23.569772027137038" height="86.23087327001356" fill="#ff5db2" stroke="transparent" data-fill-palette-color="accent" x="0" fill-opacity="1"></rect><rect width="23.569772027137038" height="86.23087327001356" fill="#ff5db2" stroke="transparent" data-fill-palette-color="accent" x="28.743624423337852" fill-opacity="0.75"></rect><rect width="23.569772027137038" height="86.23087327001356" fill="#ff5db2" stroke="transparent" data-fill-palette-color="accent" x="57.487248846675705" fill-opacity="0.5"></rect></g></svg></g></svg></g><defs></defs></svg><rect width="284.12101786485755" height="247.2" fill="none" stroke="none" visibility="hidden"></rect></g></svg></g></svg>