<svg xmlns="http://www.w3.org/2000/svg" version="1.1" xmlns:xlink="http://www.w3.org/1999/xlink" xmlns:svgjs="http://svgjs.dev/svgjs" width="1000" height="1125" viewBox="0 0 1000 1125"><g transform="matrix(1,0,0,1,0,0)"><svg viewBox="0 0 320 360" data-background-color="#111111" preserveAspectRatio="xMidYMid meet" height="1125" width="1000" xmlns="http://www.w3.org/2000/svg" xmlns:xlink="http://www.w3.org/1999/xlink"><g id="tight-bounds" transform="matrix(1,0,0,1,0,0)"><svg viewBox="0 0 320 360" height="360" width="320"><g><svg></svg></g><g><svg viewBox="0 0 320 360" height="360" width="320"><g><path d="M320 187.111c0-45.764-20.238-86.866-52.203-114.908-28.043-31.964-69.145-52.203-114.908-52.203-84.302 0-152.889 68.587-152.889 152.889 0 45.753 20.231 86.848 52.185 114.891 28.043 31.975 69.152 52.22 114.926 52.22 0.299 0 0.59-0.021 0.889-0.021 0.299 0 0.59 0.021 0.889 0.021 83.456 0 151.111-67.655 151.111-151.111 0-0.299-0.021-0.59-0.021-0.889 0-0.299 0.021-0.59 0.021-0.889zM59.833 263.097c-15.093-21.255-24.071-47.143-24.256-75.097 0.48-72.928 59.492-131.943 132.423-132.423 27.954 0.185 53.845 9.163 75.097 24.256 24.366 23.627 39.57 56.64 39.57 93.056 0 71.559-58.219 129.778-129.778 129.778-36.416 0-69.429-15.204-93.056-39.57zM3.556 172.889c0-82.343 66.99-149.333 149.333-149.333 35.051 0 67.292 12.167 92.8 32.462-22.98-13.824-49.863-21.796-78.578-21.796-84.302 0-152.889 68.587-152.889 152.889 0 28.708 7.968 55.584 21.785 78.56-20.288-25.5-32.452-57.739-32.451-92.782zM167.111 318.667c-35.84 0-68.363-14.418-92.107-37.743 21.952 15.89 48.864 25.298 77.885 25.298 73.522 0 133.333-59.812 133.333-133.333 0-29.02-9.408-55.932-25.298-77.885 23.324 23.744 37.742 56.267 37.743 92.107 0 72.54-59.015 131.556-131.556 131.556z" fill="#e83d95" fill-rule="nonzero" stroke="none" stroke-width="1" stroke-linecap="butt" stroke-linejoin="miter" stroke-miterlimit="10" stroke-dasharray="" stroke-dashoffset="0" font-family="none" font-weight="none" font-size="none" text-anchor="none" style="mix-blend-mode: normal" data-fill-palette-color="tertiary"></path></g><g transform="matrix(1,0,0,1,115.20251921690141,116.729766)"><svg viewBox="0 0 89.59496156619718 126.540468" height="126.540468" width="89.59496156619718"><g><svg viewBox="0 0 89.59496156619718 126.540468" height="126.540468" width="89.59496156619718"><g><svg viewBox="0 0 89.59496156619718 126.540468" height="126.540468" width="89.59496156619718"><g><path d="M0 126.54v-126.54h89.595v126.54z" fill="#e83d95" stroke="transparent" stroke-width="0" rx="0%" data-fill-palette-color="tertiary"></path><path d="M2.955 123.586v-120.631h83.685v120.631z" fill="#ffffff" stroke="transparent" stroke-width="0" rx="0%" data-fill-palette-color="quaternary"></path><path d="M8.865 117.676v-108.811h71.865v108.811z" fill="#e83d95" stroke="transparent" stroke-width="0" data-fill-palette-color="tertiary"></path></g><g transform="matrix(1,0,0,1,17.729765999999994,17.729765999999998)"><svg viewBox="0 0 54.135429566197196 91.08093600000001" height="91.08093600000001" width="54.135429566197196"><g><svg viewBox="0 0 54.135429566197196 91.08093600000001" height="91.08093600000001" width="54.135429566197196"><g transform="matrix(1,0,0,1,0,0)"><svg width="54.135429566197196" viewBox="1.35 -34.9 21.099999999999994 35.5" height="91.08093600000001" data-palette-color="#ffffff"><path d="M5.4-34.9L22.45-34.9 22.45-9.5Q22.45-7.2 21.7-5.35 20.95-3.5 19.58-2.18 18.2-0.85 16.23-0.13 14.25 0.6 11.85 0.6L11.85 0.6Q7.3 0.6 4.67-1.83 2.05-4.25 1.35-8.15L1.35-8.15 6.55-9.3Q7-7.05 8.28-5.75 9.55-4.45 11.85-4.45L11.85-4.45Q14.1-4.45 15.45-5.85 16.8-7.25 16.8-10.1L16.8-10.1 16.8-30.2 5.4-30.2 5.4-34.9Z" opacity="1" transform="matrix(1,0,0,1,0,0)" fill="#ffffff" class="undefined-text-0" data-fill-palette-color="quaternary" id="text-0"></path></svg></g></svg></g></svg></g></svg></g><g></g></svg></g></svg></g></svg></g><defs></defs></svg><rect width="320" height="360" fill="none" stroke="none" visibility="hidden"></rect></g></svg></g></svg>